<svg width="200" height="200" viewBox="0 0 200 200" fill="none" xmlns="http://www.w3.org/2000/svg">
<path d="M179.999 104.505C179.999 109.549 176.244 113.803 171.239 114.428L148.038 117.329C143.398 118.254 140.001 122.338 140.001 127.134V161.1C140.001 166.144 136.245 170.398 131.241 171.023L71.2404 178.523C65.2719 179.269 60 174.615 60 168.6V114.999L99.9986 109.285L99.9967 43.3163C99.9966 38.1153 103.984 33.7825 109.167 33.3505L139.997 30.7812C139.997 35.5421 143.542 39.5578 148.266 40.1483L171.238 43.0198C176.242 43.6453 179.997 47.899 179.997 52.9421L179.999 104.505Z" fill="url(#paint0_linear_497_17466)"/>
<path d="M60 170.033V142.194C60 137.153 63.7511 132.901 68.7512 132.272L20 138.366V147.871C20 152.915 23.7554 157.169 28.7597 157.794L51.731 160.666C56.455 161.256 60 165.272 60 170.033Z" fill="url(#paint1_linear_497_17466)"/>
<path opacity="0.5" d="M28.7598 90.5725C23.7555 91.1981 20.0001 95.4521 20.0001 100.495L20 155.16V152.321C20 147.278 23.7554 143.024 28.7597 142.399L91.2404 134.588C96.2447 133.963 100 129.709 100 124.666V81.6675L28.7598 90.5725Z" fill="black"/>
<path opacity="0.5" d="M21.1445 90.8469C22.6242 88.0315 25.4126 85.9898 28.7598 85.5714L60 81.6664V81.6284L105 76.0034V124.666C105 132.23 99.367 138.611 91.8606 139.55L29.3798 147.36C27.299 147.62 22.186 149.131 20.5282 151.082C20.1862 150.074 20.0011 148.997 20 147.88L20.0001 100.325C20.0048 96.7387 20.1631 93.427 21.1445 90.8469Z" fill="black" fill-opacity="0.5"/>
<path d="M28.7598 85.5725C23.7555 86.1981 20.0001 90.4521 20.0001 95.4953L20 150.16V147.321C20 142.278 23.7554 138.024 28.7596 137.399L91.2404 129.588C96.2447 128.963 100 124.709 100 119.666V76.6675L28.7598 85.5725Z" fill="url(#paint2_linear_497_17466)"/>
<path d="M28.7598 85.5725C23.7555 86.1981 20.0001 90.4521 20.0001 95.4953L20 150.16V147.321C20 142.278 23.7554 138.024 28.7596 137.399L91.2404 129.588C96.2447 128.963 100 124.709 100 119.666V76.6675L28.7598 85.5725Z" fill="url(#paint3_linear_497_17466)" fill-opacity="0.6"/>
<path d="M100 113.828V85.4945C100 80.4541 103.751 76.202 108.751 75.5728L60 81.6667V91.1722C60 96.2154 63.7554 100.469 68.7597 101.095L91.2403 103.905C96.2446 104.531 100 108.785 100 113.828Z" fill="url(#paint4_linear_497_17466)"/>
<path opacity="0.5" d="M68.7597 33.9605C63.7554 34.5861 60 38.8401 60 43.8833V96.6663V95.4941C60 90.4509 63.7554 86.1968 68.7597 85.5713L131.24 77.7612C136.245 77.1357 140 72.8817 140 67.8384V36.3833C140 30.3683 134.728 25.7145 128.76 26.4605L68.7597 33.9605Z" fill="black"/>
<path opacity="0.5" d="M60 95.4864C60.0023 92.9667 66.8792 90.846 69.3798 90.5334L131.861 82.7233C139.367 81.785 145 75.404 145 67.8392V39.113C142.001 37.5141 139.999 34.3574 139.999 30.7801L139.982 30.7815C139.669 25.4713 135.236 21.3659 129.988 21.3819C129.583 21.3831 129.173 21.4089 128.76 21.4605L68.7597 28.9605C65.4123 29.3789 62.6238 31.4208 61.1442 34.2364C60.1475 36.8572 60 40.2327 60 43.884V95.4864Z" fill="black" fill-opacity="0.5"/>
<path d="M68.7597 28.9615C63.7554 29.587 60 33.841 60 38.8843V91.6672V90.495C60 85.4518 63.7554 81.1978 68.7597 80.5722L131.24 72.7622C136.245 72.1366 140 67.8826 140 62.8394V31.3843C140 25.3693 134.728 20.7154 128.76 21.4615L68.7597 28.9615Z" fill="url(#paint5_linear_497_17466)"/>
<path d="M68.7597 28.9615C63.7554 29.587 60 33.841 60 38.8843V91.6672V90.495C60 85.4518 63.7554 81.1978 68.7597 80.5722L131.24 72.7622C136.245 72.1366 140 67.8826 140 62.8394V31.3843C140 25.3693 134.728 20.7154 128.76 21.4615L68.7597 28.9615Z" fill="url(#paint6_linear_497_17466)" fill-opacity="0.8"/>
<defs>
<linearGradient id="paint0_linear_497_17466" x1="63.3333" y1="185.187" x2="246.32" y2="99.2355" gradientUnits="userSpaceOnUse">
<stop stop-color="#003580"/>
<stop offset="0.299454" stop-color="#0057AD"/>
<stop offset="1" stop-color="#16BFDF"/>
</linearGradient>
<linearGradient id="paint1_linear_497_17466" x1="20" y1="141.033" x2="73.3333" y2="141.033" gradientUnits="userSpaceOnUse">
<stop stop-color="#0E637A"/>
<stop offset="1" stop-color="#0074BD"/>
</linearGradient>
<linearGradient id="paint2_linear_497_17466" x1="114.286" y1="139.965" x2="22.7091" y2="93.9545" gradientUnits="userSpaceOnUse">
<stop stop-color="#0986B3"/>
<stop offset="0.721629" stop-color="#16BFDF"/>
<stop offset="1" stop-color="#3DD9EB"/>
</linearGradient>
<linearGradient id="paint3_linear_497_17466" x1="20" y1="111.667" x2="32.1429" y2="111.667" gradientUnits="userSpaceOnUse">
<stop stop-color="#0BA0C5"/>
<stop offset="0.499692" stop-color="#0BA0C5" stop-opacity="0.263415"/>
<stop offset="1" stop-color="#0BA0C5" stop-opacity="0"/>
</linearGradient>
<linearGradient id="paint4_linear_497_17466" x1="46.6667" y1="101.31" x2="100" y2="101.31" gradientUnits="userSpaceOnUse">
<stop stop-color="#117B97"/>
<stop offset="1" stop-color="#1392B4"/>
</linearGradient>
<linearGradient id="paint5_linear_497_17466" x1="65" y1="100.957" x2="136.608" y2="27.9792" gradientUnits="userSpaceOnUse">
<stop stop-color="#3DCBFF"/>
<stop offset="0.524843" stop-color="#6EEDED"/>
<stop offset="1" stop-color="#9BF3AF"/>
</linearGradient>
<linearGradient id="paint6_linear_497_17466" x1="60" y1="59.9998" x2="72.8571" y2="59.9998" gradientUnits="userSpaceOnUse">
<stop stop-color="#3DCBFF"/>
<stop offset="0.433173" stop-color="#3DCBFF" stop-opacity="0.339056"/>
<stop offset="1" stop-color="#3DCBFF" stop-opacity="0"/>
</linearGradient>
</defs>
</svg>
